<svg width="640" height="640" viewBox="0 0 640 640" fill="none" xmlns="http://www.w3.org/2000/svg">
<path fill-rule="evenodd" clip-rule="evenodd" d="M117.271 505.646L117.271 505.646L206.871 572.846C247.195 603.089 267.357 618.21 290.501 623.739C310.86 628.603 332.743 628.411 353.013 623.191C376.057 617.257 395.951 601.784 435.738 570.839L524.145 502.077L524.145 502.077C563.932 471.132 583.826 455.659 591.175 437.954C595.175 428.318 596.644 418.245 595.586 408.303L595.533 349.82C595.531 347.599 593.72 345.805 591.499 345.824L547.652 346.2C540.339 340.565 532.025 334.329 522.612 327.27L433.012 260.07C392.688 229.827 372.526 214.706 349.381 209.177C329.023 204.314 307.14 204.505 286.87 209.725C263.826 215.659 243.932 231.132 204.145 262.077L115.738 330.839C106.495 338.027 98.3263 344.381 91.1387 350.122L47.9506 350.492C45.7548 350.511 43.9848 352.297 43.985 354.493L43.9894 416.65C43.9562 417.793 43.9563 418.937 43.9896 420.081L43.9897 420.476C43.9897 420.653 44.0012 420.827 44.0235 420.998C44.3521 428.345 46.0538 435.657 49.1267 442.708C56.7852 460.282 76.947 475.403 117.271 505.646Z" fill="#176B87"/>
<path fill-rule="evenodd" clip-rule="evenodd" d="M117.271 441.646L117.271 441.646L206.871 508.846C247.195 539.089 267.357 554.211 290.501 559.739C310.86 564.603 332.743 564.411 353.013 559.191C376.057 553.257 395.951 537.784 435.738 506.839L524.145 438.078L524.145 438.077C563.932 407.132 583.826 391.659 591.175 373.954C595.175 364.317 596.644 354.243 595.586 344.3L595.533 285.941C595.531 283.72 593.72 281.926 591.499 281.945L547.807 282.321C540.457 276.654 532.091 270.38 522.612 263.27L433.012 196.07C392.688 165.827 372.526 150.706 349.381 145.177C329.023 140.314 307.14 140.506 286.87 145.725C263.826 151.659 243.932 167.132 204.145 198.078L115.738 266.839C106.429 274.079 98.2097 280.472 90.985 286.244L47.9464 286.614C45.7507 286.633 43.9806 288.418 43.9808 290.614L43.9852 352.8C43.9576 353.844 43.9577 354.887 43.9854 355.93L43.9855 356.597C43.9855 356.81 44.002 357.018 44.0339 357.221C44.3866 364.493 46.0848 371.729 49.1267 378.708C56.7852 396.282 76.947 411.403 117.271 441.646Z" fill="#EEF5FF"/>
<path fill-rule="evenodd" clip-rule="evenodd" d="M117.271 377.646L117.271 377.646L206.871 444.846C247.195 475.089 267.357 490.211 290.501 495.739C310.86 500.603 332.743 500.411 353.013 495.191C376.057 489.257 395.951 473.784 435.738 442.839L524.145 374.078L524.145 374.077C563.932 343.132 583.826 327.659 591.175 309.954C595.175 300.317 596.644 290.243 595.586 280.3L595.533 221.941C595.531 219.72 593.72 217.926 591.499 217.945L547.807 218.321C540.457 212.654 532.091 206.38 522.612 199.27L433.012 132.07C392.688 101.827 372.526 86.7058 349.381 81.177C329.023 76.3137 307.14 76.5056 286.87 81.7253C263.826 87.6593 243.932 103.132 204.145 134.078L115.738 202.839C106.429 210.079 98.2097 216.472 90.985 222.244L47.9464 222.614C45.7507 222.633 43.9806 224.418 43.9808 226.614L43.9852 288.8C43.9576 289.844 43.9577 290.887 43.9854 291.93L43.9855 292.597C43.9855 292.81 44.002 293.018 44.0339 293.221C44.3866 300.493 46.0848 307.729 49.1267 314.708C56.7852 332.282 76.947 347.403 117.271 377.646Z" fill="#B4D4FF"/>
<path d="M43.9853 288.8L43.9809 227.748C43.7848 219.402 45.3595 211.029 48.7079 202.962C56.0571 185.257 75.9506 169.784 115.738 138.839L204.145 70.0775C243.932 39.132 263.826 23.6593 286.87 17.7253C307.14 12.5056 329.023 12.3137 349.381 17.177C372.526 22.7058 392.688 37.8272 433.012 68.0701L522.612 135.27C562.936 165.513 583.098 180.634 590.756 198.208C595.128 208.239 596.724 218.798 595.54 229.232L595.586 280.3C596.044 284.602 596.028 288.928 595.54 293.232L595.586 344.3C596.044 348.601 596.028 352.926 595.54 357.23L595.586 408.303C596.644 418.245 595.175 428.317 591.175 437.954C583.826 455.659 563.932 471.132 524.145 502.077L435.738 570.839C395.951 601.784 376.057 617.257 353.013 623.191C332.743 628.411 310.86 628.603 290.501 623.739C267.357 618.211 247.195 603.089 206.871 572.846L117.271 505.646C76.9472 475.403 56.7853 460.282 49.1267 442.708C46.0538 435.657 44.3521 428.345 44.0236 420.998C44.0013 420.827 43.9897 420.653 43.9897 420.476L43.9897 420.081C43.9564 418.937 43.9563 417.793 43.9895 416.65L43.9851 355.917C43.9578 354.878 43.9578 353.839 43.9853 352.8L43.9809 291.748C43.9578 290.766 43.9593 289.783 43.9853 288.8Z" fill="url(#paint0_linear_105_2)" fill-opacity="0.7" style="mix-blend-mode:multiply"/>
<path d="M117.271 313.646C76.9471 283.403 56.7852 268.282 49.1267 250.708C42.39 235.25 42.2434 218.536 48.7079 202.962C56.057 185.257 75.9505 169.784 115.738 138.839L204.145 70.0775C243.932 39.132 263.826 23.6593 286.87 17.7253C307.14 12.5056 329.023 12.3137 349.381 17.177C372.526 22.7058 392.688 37.8272 433.012 68.0701L522.612 135.27C562.936 165.513 583.097 180.634 590.756 198.208C597.493 213.666 597.639 230.38 591.175 245.954C583.826 263.659 563.932 279.132 524.145 310.078L435.738 378.839C395.951 409.784 376.057 425.257 353.013 431.191C332.743 436.411 310.86 436.603 290.501 431.739C267.357 426.211 247.195 411.089 206.871 380.846L117.271 313.646Z" fill="#86B6F6"/>
<path d="M297.578 304.566L238.566 265.102C233.937 262.007 230.832 258.411 229.25 254.314C227.745 250.16 227.774 246.001 229.336 241.837C230.897 237.563 234 233.724 238.646 230.32L268.964 208.108L285.722 219.315L257.844 239.739C255.675 241.328 254.615 243.223 254.662 245.425C254.787 247.571 256.006 249.417 258.32 250.965L270.41 259.05L302.122 235.816L318.76 246.943L287.048 270.176L317.093 290.269L297.578 304.566Z" fill="white"/>
<path d="M374.9 247.918L291.109 191.884L320.963 170.012C329.559 163.714 338.789 159.469 348.652 157.274C358.594 155.024 368.459 154.73 378.248 156.392C388.114 157.998 397.117 161.523 405.257 166.966C413.397 172.41 418.837 178.544 421.579 185.37C424.399 192.139 424.429 199.05 421.67 206.104C418.988 213.101 413.349 219.749 404.753 226.046L374.9 247.918ZM377.657 222.414L387.53 215.18C392.022 211.889 395.013 208.3 396.503 204.413C397.99 200.416 397.865 196.425 396.128 192.442C394.391 188.459 390.929 184.733 385.742 181.264C380.555 177.795 375.079 175.544 369.315 174.511C363.551 173.478 357.89 173.599 352.333 174.875C346.773 176.041 341.748 178.269 337.256 181.559L327.383 188.793L377.657 222.414Z" fill="white"/>
<defs>
<linearGradient id="paint0_linear_105_2" x1="44" y1="14" x2="596" y2="14" gradientUnits="userSpaceOnUse">
<stop stop-color="white" stop-opacity="0.35"/>
<stop offset="0.046875" stop-color="white" stop-opacity="0"/>
<stop offset="0.364583" stop-color="white" stop-opacity="0"/>
<stop offset="0.458333" stop-color="white" stop-opacity="0.5"/>
<stop offset="0.505208" stop-color="white" stop-opacity="0.5"/>
<stop offset="0.734375" stop-opacity="0.35"/>
</linearGradient>
</defs>
</svg>
